<?xml version="1.0" encoding="UTF-8" standalone="no"?>
<!DOCTYPE svg PUBLIC "-//W3C//DTD SVG 1.1//EN"
 "http://www.w3.org/Graphics/SVG/1.1/DTD/svg11.dtd">
<!-- Generated by graphviz version 14.0.0 (20250921.2048)
 -->
<!-- Title: Geo&#45;Safe Monitor PH &#45; System Architecture Pages: 1 -->
<svg width="1637pt" height="631pt"
 viewBox="0.00 0.00 1637.00 631.00" xmlns="http://www.w3.org/2000/svg" xmlns:xlink="http://www.w3.org/1999/xlink">
<g id="graph0" class="graph" transform="scale(1 1) rotate(0) translate(36 595.25)">
<title>Geo&#45;Safe Monitor PH &#45; System Architecture</title>
<polygon fill="white" stroke="none" points="-36,36 -36,-595.25 1600.7,-595.25 1600.7,36 -36,36"/>
<text xml:space="preserve" text-anchor="middle" x="782.35" y="-9.05" font-family="Sans-Serif" font-size="16.00" fill="#2d3436">Geo&#45;Safe Monitor PH &#45; System Architecture</text>
<g id="clust1" class="cluster">
<title>cluster_Layer 1: Data Acquisition</title>
<path fill="#e8f4f8" stroke="#aeb6be" d="M12,-121.25C12,-121.25 136.75,-121.25 136.75,-121.25 142.75,-121.25 148.75,-127.25 148.75,-133.25 148.75,-133.25 148.75,-539.25 148.75,-539.25 148.75,-545.25 142.75,-551.25 136.75,-551.25 136.75,-551.25 12,-551.25 12,-551.25 6,-551.25 0,-545.25 0,-539.25 0,-539.25 0,-133.25 0,-133.25 0,-127.25 6,-121.25 12,-121.25"/>
<text xml:space="preserve" text-anchor="middle" x="74.38" y="-535.85" font-family="Sans-Serif" font-size="12.00" fill="#2d3436">Layer 1: Data Acquisition</text>
</g>
<g id="clust2" class="cluster">
<title>cluster_Layer 2 &amp; 3: Cloud Platform &amp; Analysis Engine</title>
<path fill="#fff4e6" stroke="#aeb6be" d="M359.25,-223.25C359.25,-223.25 965.4,-223.25 965.4,-223.25 971.4,-223.25 977.4,-229.25 977.4,-235.25 977.4,-235.25 977.4,-457.25 977.4,-457.25 977.4,-463.25 971.4,-469.25 965.4,-469.25 965.4,-469.25 359.25,-469.25 359.25,-469.25 353.25,-469.25 347.25,-463.25 347.25,-457.25 347.25,-457.25 347.25,-235.25 347.25,-235.25 347.25,-229.25 353.25,-223.25 359.25,-223.25"/>
<text xml:space="preserve" text-anchor="middle" x="478.62" y="-453.85" font-family="Sans-Serif" font-size="12.00" fill="#2d3436">Layer 2 &amp; 3: Cloud Platform &amp; Analysis Engine</text>
</g>
<g id="clust3" class="cluster">
<title>cluster_Processing &amp; Analysis Core</title>
<path fill="#fff0f5" stroke="#aeb6be" d="M616.05,-231.25C616.05,-231.25 957.4,-231.25 957.4,-231.25 963.4,-231.25 969.4,-237.25 969.4,-243.25 969.4,-243.25 969.4,-425.25 969.4,-425.25 969.4,-431.25 963.4,-437.25 957.4,-437.25 957.4,-437.25 616.05,-437.25 616.05,-437.25 610.05,-437.25 604.05,-431.25 604.05,-425.25 604.05,-425.25 604.05,-243.25 604.05,-243.25 604.05,-237.25 610.05,-231.25 616.05,-231.25"/>
<text xml:space="preserve" text-anchor="middle" x="683.68" y="-421.85" font-family="Sans-Serif" font-size="12.00" fill="#2d3436">Processing &amp; Analysis Core</text>
</g>
<g id="clust4" class="cluster">
<title>cluster_Layer 4: User Interface &amp; Alerting</title>
<path fill="#e8f8e8" stroke="#aeb6be" d="M1102.65,-36.25C1102.65,-36.25 1272.4,-36.25 1272.4,-36.25 1278.4,-36.25 1284.4,-42.25 1284.4,-48.25 1284.4,-48.25 1284.4,-454.25 1284.4,-454.25 1284.4,-460.25 1278.4,-466.25 1272.4,-466.25 1272.4,-466.25 1102.65,-466.25 1102.65,-466.25 1096.65,-466.25 1090.65,-460.25 1090.65,-454.25 1090.65,-454.25 1090.65,-48.25 1090.65,-48.25 1090.65,-42.25 1096.65,-36.25 1102.65,-36.25"/>
<text xml:space="preserve" text-anchor="middle" x="1187.53" y="-450.85" font-family="Sans-Serif" font-size="12.00" fill="#2d3436">Layer 4: User Interface &amp; Alerting</text>
</g>
<!-- a5106b8db96145298459ba4648454532 -->
<g id="node1" class="node">
<title>a5106b8db96145298459ba4648454532</title>
<image xlink:href="C:\Users\LESTER\scoop\apps\anaconda3\current\App\Lib\site-packages\resources/onprem/client\users.png" width="100.8px" height="100.8px" preserveAspectRatio="xMinYMin meet" x="1463.9" y="-177.65"/>
<text xml:space="preserve" text-anchor="middle" x="1514.3" y="-64.55" font-family="Sans-Serif" font-size="12.00" fill="#2d3436">At&#45;Risk Community</text>
<text xml:space="preserve" text-anchor="middle" x="1514.3" y="-48.8" font-family="Sans-Serif" font-size="12.00" fill="#2d3436">(Citizens)</text>
</g>
<!-- 73b37657285b4fa483afc69de2d5c25e -->
<g id="node2" class="node">
<title>73b37657285b4fa483afc69de2d5c25e</title>
<image xlink:href="C:\Users\LESTER\scoop\apps\anaconda3\current\App\Lib\site-packages\resources/onprem/client\user.png" width="100.8px" height="100.8px" preserveAspectRatio="xMinYMin meet" x="1463.9" y="-401.65"/>
<text xml:space="preserve" text-anchor="middle" x="1514.3" y="-288.55" font-family="Sans-Serif" font-size="12.00" fill="#2d3436">CDRRMO / LGU Staff</text>
<text xml:space="preserve" text-anchor="middle" x="1514.3" y="-272.8" font-family="Sans-Serif" font-size="12.00" fill="#2d3436">(Administrators)</text>
</g>
<!-- f14ff5648c854624aba45c2ff1ed2bbf -->
<g id="node3" class="node">
<title>f14ff5648c854624aba45c2ff1ed2bbf</title>
<image xlink:href="C:\Users\LESTER\scoop\apps\anaconda3\current\App\Lib\site-packages\resources/aws/analytics\quicksight.png" width="100.8px" height="100.8px" preserveAspectRatio="xMinYMin meet" x="23.475" y="-486.65"/>
<text xml:space="preserve" text-anchor="middle" x="73.88" y="-373.55" font-family="Sans-Serif" font-size="12.00" fill="#2d3436">🛰️ Landsat/Sentinel</text>
<text xml:space="preserve" text-anchor="middle" x="73.88" y="-357.8" font-family="Sans-Serif" font-size="12.00" fill="#2d3436">(Weekly)</text>
</g>
<!-- 07771449ba6645ae9fd7297c7e7787f2 -->
<g id="node5" class="node">
<title>07771449ba6645ae9fd7297c7e7787f2</title>
<image xlink:href="C:\Users\LESTER\scoop\apps\anaconda3\current\App\Lib\site-packages\resources/aws/network\api-gateway.png" width="100.8px" height="100.8px" preserveAspectRatio="xMinYMin meet" x="355.25" y="-372.65"/>
<text xml:space="preserve" text-anchor="middle" x="405.65" y="-258.2" font-family="Sans-Serif" font-size="12.00" fill="#2d3436">API Gateway</text>
</g>
<!-- f14ff5648c854624aba45c2ff1ed2bbf&#45;&gt;07771449ba6645ae9fd7297c7e7787f2 -->
<g id="edge1" class="edge">
<title>f14ff5648c854624aba45c2ff1ed2bbf&#45;&gt;07771449ba6645ae9fd7297c7e7787f2</title>
<path fill="none" stroke="#2e86de" stroke-width="2" d="M124.26,-372.05C124.26,-372.05 343.82,-372.05 343.82,-372.05"/>
<polygon fill="#2e86de" stroke="#2e86de" stroke-width="2" points="342.3,-375.55 352.3,-372.05 342.3,-368.55 342.3,-375.55"/>
<text xml:space="preserve" text-anchor="middle" x="248" y="-380.4" font-family="Sans-Serif" font-size="13.00" fill="#2d3436">Weekly Satellite Imagery</text>
</g>
<!-- e127d0888de54bf193d0fa9fdcf444e2 -->
<g id="node4" class="node">
<title>e127d0888de54bf193d0fa9fdcf444e2</title>
<image xlink:href="C:\Users\LESTER\scoop\apps\anaconda3\current\App\Lib\site-packages\resources/aws/iot\iot-sensor.png" width="100.8px" height="100.8px" preserveAspectRatio="xMinYMin meet" x="23.475" y="-262.65"/>
<text xml:space="preserve" text-anchor="middle" x="73.88" y="-149.55" font-family="Sans-Serif" font-size="12.00" fill="#2d3436">📍 Geo&#45;Safe Sensor Node</text>
<text xml:space="preserve" text-anchor="middle" x="73.88" y="-133.8" font-family="Sans-Serif" font-size="12.00" fill="#2d3436">(Real&#45;time)</text>
</g>
<!-- e127d0888de54bf193d0fa9fdcf444e2&#45;&gt;07771449ba6645ae9fd7297c7e7787f2 -->
<g id="edge2" class="edge">
<title>e127d0888de54bf193d0fa9fdcf444e2&#45;&gt;07771449ba6645ae9fd7297c7e7787f2</title>
<path fill="none" stroke="#2e86de" stroke-width="2" d="M124.26,-274.45C124.26,-274.45 343.82,-274.45 343.82,-274.45"/>
<polygon fill="#2e86de" stroke="#2e86de" stroke-width="2" points="342.3,-277.95 352.3,-274.45 342.3,-270.95 342.3,-277.95"/>
<text xml:space="preserve" text-anchor="middle" x="248" y="-272.4" font-family="Sans-Serif" font-size="13.00" fill="#2d3436">Real&#45;time Telemetry</text>
</g>
<!-- 75fdb049e8674683b73de0f443e3c7e7 -->
<g id="node6" class="node">
<title>75fdb049e8674683b73de0f443e3c7e7</title>
<image xlink:href="C:\Users\LESTER\scoop\apps\anaconda3\current\App\Lib\site-packages\resources/aws/compute\lambda.png" width="100.8px" height="100.8px" preserveAspectRatio="xMinYMin meet" x="612.05" y="-372.65"/>
<text xml:space="preserve" text-anchor="middle" x="662.45" y="-259.55" font-family="Sans-Serif" font-size="12.00" fill="#2d3436">Risk Analysis Logic</text>
<text xml:space="preserve" text-anchor="middle" x="662.45" y="-243.8" font-family="Sans-Serif" font-size="12.00" fill="#2d3436">(ML/Statistical)</text>
</g>
<!-- 07771449ba6645ae9fd7297c7e7787f2&#45;&gt;75fdb049e8674683b73de0f443e3c7e7 -->
<g id="edge3" class="edge">
<title>07771449ba6645ae9fd7297c7e7787f2&#45;&gt;75fdb049e8674683b73de0f443e3c7e7</title>
<path fill="none" stroke="#54a0ff" d="M455.77,-322.25C455.77,-322.25 600.94,-322.25 600.94,-322.25"/>
<polygon fill="#54a0ff" stroke="#54a0ff" points="600.94,-325.75 610.94,-322.25 600.94,-318.75 600.94,-325.75"/>
<text xml:space="preserve" text-anchor="middle" x="534.05" y="-326.4" font-family="Sans-Serif" font-size="13.00" fill="#2d3436">Validated Data</text>
</g>
<!-- 07d96bba1ed94a85b6b121b78d63597d -->
<g id="node7" class="node">
<title>07d96bba1ed94a85b6b121b78d63597d</title>
<image xlink:href="C:\Users\LESTER\scoop\apps\anaconda3\current\App\Lib\site-packages\resources/aws/database\timestream.png" width="100.8px" height="100.8px" preserveAspectRatio="xMinYMin meet" x="860.6" y="-380.65"/>
<text xml:space="preserve" text-anchor="middle" x="911" y="-266.2" font-family="Sans-Serif" font-size="12.00" fill="#2d3436">Time&#45;Series Database</text>
</g>
<!-- 75fdb049e8674683b73de0f443e3c7e7&#45;&gt;07d96bba1ed94a85b6b121b78d63597d -->
<g id="edge4" class="edge">
<title>75fdb049e8674683b73de0f443e3c7e7&#45;&gt;07d96bba1ed94a85b6b121b78d63597d</title>
<path fill="none" stroke="#5f27cd" stroke-dasharray="5,2" d="M712.75,-330.25C712.75,-330.25 849.26,-330.25 849.26,-330.25"/>
<polygon fill="#5f27cd" stroke="#5f27cd" points="849.26,-333.75 859.26,-330.25 849.26,-326.75 849.26,-333.75"/>
<text xml:space="preserve" text-anchor="middle" x="786.73" y="-330.4" font-family="Sans-Serif" font-size="13.00" fill="#2d3436">Store Results</text>
</g>
<!-- 74ad77ee0bc64b3ab9f40eb07fbb42a5 -->
<g id="node9" class="node">
<title>74ad77ee0bc64b3ab9f40eb07fbb42a5</title>
<image xlink:href="C:\Users\LESTER\scoop\apps\anaconda3\current\App\Lib\site-packages\resources/aws/integration\simple-notification-service-sns.png" width="100.8px" height="100.8px" preserveAspectRatio="xMinYMin meet" x="1136.62" y="-177.65"/>
<text xml:space="preserve" text-anchor="middle" x="1187.03" y="-64.55" font-family="Sans-Serif" font-size="12.00" fill="#2d3436">Multi&#45;Channel Alert System</text>
<text xml:space="preserve" text-anchor="middle" x="1187.03" y="-48.8" font-family="Sans-Serif" font-size="12.00" fill="#2d3436">(SMS/Email)</text>
</g>
<!-- 75fdb049e8674683b73de0f443e3c7e7&#45;&gt;74ad77ee0bc64b3ab9f40eb07fbb42a5 -->
<g id="edge6" class="edge">
<title>75fdb049e8674683b73de0f443e3c7e7&#45;&gt;74ad77ee0bc64b3ab9f40eb07fbb42a5</title>
<path fill="none" stroke="#ff6348" stroke-width="2" d="M712.57,-246.92C840.8,-246.92 1170.7,-246.92 1170.7,-246.92 1170.7,-246.92 1170.7,-221.55 1170.7,-221.55"/>
<polygon fill="#ff6348" stroke="#ff6348" stroke-width="2" points="1174.2,-223.06 1170.7,-213.06 1167.2,-223.06 1174.2,-223.06"/>
<text xml:space="preserve" text-anchor="middle" x="911" y="-151.4" font-family="Sans-Serif" font-size="13.00" fill="#2d3436">Risk Detected</text>
</g>
<!-- 356dc81e3fa0429b8960fa96fa9580dc -->
<g id="node8" class="node">
<title>356dc81e3fa0429b8960fa96fa9580dc</title>
<image xlink:href="C:\Users\LESTER\scoop\apps\anaconda3\current\App\Lib\site-packages\resources/aws/analytics\analytics.png" width="100.8px" height="100.8px" preserveAspectRatio="xMinYMin meet" x="1136.62" y="-401.65"/>
<text xml:space="preserve" text-anchor="middle" x="1187.03" y="-288.55" font-family="Sans-Serif" font-size="12.00" fill="#2d3436">LGU Web Dashboard</text>
<text xml:space="preserve" text-anchor="middle" x="1187.03" y="-272.8" font-family="Sans-Serif" font-size="12.00" fill="#2d3436">(Monitoring &amp; Analysis)</text>
</g>
<!-- 07d96bba1ed94a85b6b121b78d63597d&#45;&gt;356dc81e3fa0429b8960fa96fa9580dc -->
<g id="edge5" class="edge">
<title>07d96bba1ed94a85b6b121b78d63597d&#45;&gt;356dc81e3fa0429b8960fa96fa9580dc</title>
<path fill="none" stroke="#00d2d3" d="M961.31,-333.55C961.31,-333.55 1125.55,-333.55 1125.55,-333.55"/>
<polygon fill="#00d2d3" stroke="#00d2d3" points="1125.55,-337.05 1135.55,-333.55 1125.55,-330.05 1125.55,-337.05"/>
<text xml:space="preserve" text-anchor="middle" x="1030.03" y="-344.4" font-family="Sans-Serif" font-size="13.00" fill="#2d3436">Query Data</text>
</g>
<!-- 356dc81e3fa0429b8960fa96fa9580dc&#45;&gt;73b37657285b4fa483afc69de2d5c25e -->
<g id="edge7" class="edge">
<title>356dc81e3fa0429b8960fa96fa9580dc&#45;&gt;73b37657285b4fa483afc69de2d5c25e</title>
<path fill="none" stroke="#1dd1a1" stroke-dasharray="1,5" d="M1248.6,-351.25C1248.6,-351.25 1452.46,-351.25 1452.46,-351.25"/>
<polygon fill="#1dd1a1" stroke="#1dd1a1" points="1248.6,-347.75 1238.6,-351.25 1248.6,-354.75 1248.6,-347.75"/>
<polygon fill="#1dd1a1" stroke="#1dd1a1" points="1452.46,-354.75 1462.46,-351.25 1452.46,-347.75 1452.46,-354.75"/>
<text xml:space="preserve" text-anchor="middle" x="1370.15" y="-355.4" font-family="Sans-Serif" font-size="13.00" fill="#2d3436">Monitor &amp; Analyze</text>
</g>
<!-- 74ad77ee0bc64b3ab9f40eb07fbb42a5&#45;&gt;a5106b8db96145298459ba4648454532 -->
<g id="edge8" class="edge">
<title>74ad77ee0bc64b3ab9f40eb07fbb42a5&#45;&gt;a5106b8db96145298459ba4648454532</title>
<path fill="none" stroke="#ff6348" d="M1237.09,-127.25C1237.09,-127.25 1452.46,-127.25 1452.46,-127.25"/>
<polygon fill="#ff6348" stroke="#ff6348" points="1452.46,-130.75 1462.46,-127.25 1452.46,-123.75 1452.46,-130.75"/>
<text xml:space="preserve" text-anchor="middle" x="1370.15" y="-131.4" font-family="Sans-Serif" font-size="13.00" fill="#2d3436">SMS Alerts (Level 3)</text>
</g>
<!-- 74ad77ee0bc64b3ab9f40eb07fbb42a5&#45;&gt;73b37657285b4fa483afc69de2d5c25e -->
<g id="edge9" class="edge">
<title>74ad77ee0bc64b3ab9f40eb07fbb42a5&#45;&gt;73b37657285b4fa483afc69de2d5c25e</title>
<path fill="none" stroke="#ff6348" d="M1203.7,-209.92C1203.7,-234.2 1203.7,-254.38 1203.7,-254.38 1203.7,-254.38 1514.7,-254.38 1514.7,-254.38 1514.7,-254.38 1514.7,-257.16 1514.7,-257.16"/>
<polygon fill="#ff6348" stroke="#ff6348" points="1511.2,-257.16 1514.7,-267.16 1518.2,-257.16 1511.2,-257.16"/>
<text xml:space="preserve" text-anchor="middle" x="1370.15" y="-243.4" font-family="Sans-Serif" font-size="13.00" fill="#2d3436">Email/SMS (L1/L2)</text>
</g>
</g>
</svg>
